<svg width="1865" height="787" viewBox="0 0 1865 787" fill="none" xmlns="http://www.w3.org/2000/svg">
<path d="M0 698.146L62.1667 648.406C124.333 597.731 248.667 499.652 373 473.964C497.333 448.277 621.667 499.652 746 586.055C870.333 672.459 994.667 798.561 1119 785.25C1243.33 772.873 1367.67 623.419 1492 536.315C1616.33 448.277 1740.67 424.925 1802.83 411.614L1865 399.237V175.056H1802.83C1740.67 175.056 1616.33 175.056 1492 175.056C1367.67 175.056 1243.33 175.056 1119 175.056C994.667 175.056 870.333 175.056 746 175.056C621.667 175.056 497.333 175.056 373 175.056C248.667 175.056 124.333 175.056 62.1667 175.056H0V698.146Z" fill="#F2D17C"/>
<path d="M0 240.746L34.5802 294.991C69.0309 348.423 138.58 458.131 207.222 457.522C276.253 458.131 345.802 348.423 414.444 338.265C483.475 328.107 553.024 413.435 621.667 479.057C690.698 543.46 760.247 588.156 828.889 609.081C897.92 630.82 967.469 630.82 1036.11 598.314C1105.14 565.808 1174.69 500.795 1243.33 425.015C1312.36 348.423 1381.91 263.094 1450.56 219.008C1519.59 175.734 1589.14 175.734 1657.78 208.24C1726.81 240.746 1796.36 305.759 1830.03 338.265L1865 370.771V110.722H1830.42C1795.97 110.722 1726.42 110.722 1657.78 110.722C1588.75 110.722 1519.2 110.722 1450.56 110.722C1381.52 110.722 1311.98 110.722 1243.33 110.722C1174.3 110.722 1104.75 110.722 1036.11 110.722C967.08 110.722 897.531 110.722 828.889 110.722C759.858 110.722 690.309 110.722 621.667 110.722C552.636 110.722 483.087 110.722 414.444 110.722C345.414 110.722 275.865 110.722 207.222 110.722C138.191 110.722 68.6424 110.722 34.9688 110.722H0V240.746Z" fill="#E8BA44"/>
<path d="M0 180.825L34.5802 210.071C69.0309 238.878 138.58 298.028 207.222 297.699C276.253 298.028 345.802 238.878 414.444 233.402C483.475 227.925 553.024 273.93 621.667 309.31C690.698 344.032 760.247 368.13 828.889 379.412C897.92 391.133 967.469 391.133 1036.11 373.607C1105.14 356.081 1174.69 321.03 1243.33 280.173C1312.36 238.878 1381.91 192.874 1450.56 169.104C1519.59 145.773 1589.14 145.773 1657.78 163.299C1726.81 180.825 1796.36 215.876 1830.03 233.402L1865 250.927V110.722H1830.42C1795.97 110.722 1726.42 110.722 1657.78 110.722C1588.75 110.722 1519.2 110.722 1450.56 110.722C1381.52 110.722 1311.98 110.722 1243.33 110.722C1174.3 110.722 1104.75 110.722 1036.11 110.722C967.08 110.722 897.531 110.722 828.889 110.722C759.858 110.722 690.309 110.722 621.667 110.722C552.636 110.722 483.087 110.722 414.444 110.722C345.414 110.722 275.865 110.722 207.222 110.722C138.191 110.722 68.6424 110.722 34.9688 110.722H0V180.825Z" fill="#7277FF"/>
<path d="M0 92.6029L34.5802 79.5044C69.0309 66.6021 138.58 40.1108 207.222 40.2579C276.253 40.1108 345.802 66.6021 414.444 69.055C483.475 71.5079 553.024 50.9035 621.667 35.0578C690.698 19.5064 760.247 8.71359 828.889 3.66061C897.92 -1.5886 967.469 -1.58859 1036.11 6.2607C1105.14 14.11 1174.69 29.8086 1243.33 48.1072C1312.36 66.6021 1381.91 87.2065 1450.56 97.8521C1519.59 108.301 1589.14 108.301 1657.78 100.452C1726.81 92.6029 1796.36 76.9043 1830.03 69.055L1865 61.2057V124H1830.42C1795.97 124 1726.42 124 1657.78 124C1588.75 124 1519.2 124 1450.56 124C1381.52 124 1311.98 124 1243.33 124C1174.3 124 1104.75 124 1036.11 124C967.08 124 897.531 124 828.889 124C759.858 124 690.309 124 621.667 124C552.636 124 483.087 124 414.444 124C345.414 124 275.865 124 207.222 124C138.191 124 68.6424 124 34.9688 124H0V92.6029Z" fill="#7277FF"/>
</svg>
