<svg viewBox="0 0 1865 787" fill="none" xmlns="http://www.w3.org/2000/svg">
<path d="M0 0L62.1333 58.8261C124.267 118.283 248.533 234.988 372.8 269.212C497.067 302.804 621.333 252.337 745.6 193.51C869.867 134.054 994.133 67.8156 1118.4 84.0597C1242.67 100.934 1366.93 201.869 1491.2 218.744C1615.47 234.988 1739.73 168.75 1801.87 134.527L1864 100.934V454.206H1801.87C1739.73 454.206 1615.47 454.206 1491.2 454.206C1366.93 454.206 1242.67 454.206 1118.4 454.206C994.133 454.206 869.867 454.206 745.6 454.206C621.333 454.206 497.067 454.206 372.8 454.206C248.533 454.206 124.267 454.206 62.1333 454.206H0V0Z" fill="#F2D17C"/>
<path d="M0 406.208L34.5617 377.665C68.9939 349.549 138.506 291.821 207.111 292.142C276.105 291.821 345.617 349.549 414.222 354.894C483.216 360.239 552.728 315.34 621.333 280.81C690.327 246.922 759.839 223.403 828.444 212.392C897.438 200.953 966.95 200.953 1035.56 218.058C1104.55 235.162 1174.06 269.372 1242.67 309.246C1311.67 349.549 1381.17 394.448 1449.78 417.646C1518.78 440.417 1588.28 440.417 1656.89 423.312C1725.89 406.208 1795.39 371.999 1829.05 354.894L1864 337.79V474.626H1829.43C1795 474.626 1725.49 474.626 1656.89 474.626C1587.9 474.626 1518.38 474.626 1449.78 474.626C1380.79 474.626 1311.27 474.626 1242.67 474.626C1173.68 474.626 1104.16 474.626 1035.56 474.626C966.562 474.626 897.05 474.626 828.444 474.626C759.451 474.626 689.939 474.626 621.333 474.626C552.339 474.626 482.828 474.626 414.222 474.626C345.228 474.626 275.717 474.626 207.111 474.626C138.117 474.626 68.6056 474.626 34.95 474.626H0V406.208Z" fill="#E8BA44"/>
<path d="M0 526.492L28.2189 546.654C56.4378 566.514 112.617 607.291 169.572 602.987C225.881 598.985 282.189 550.656 339.144 526.492C395.453 502.328 451.761 502.328 508.717 510.408C564.896 518.186 621.333 534.799 678.289 562.738C734.338 590.678 790.906 631.455 847.861 639.233C903.781 647.313 960.478 623.148 1016.14 623.148C1073.22 623.148 1130.05 647.313 1185.71 651.315C1242.67 655.619 1299.62 639.006 1355.28 619.147C1412.1 598.985 1469.19 574.821 1524.86 554.659C1581.55 534.799 1637.47 518.186 1694.43 522.49C1751 526.492 1807.04 550.656 1835.52 562.738L1864 574.821V454H1835.78C1807.56 454 1751.38 454 1694.43 454C1638.11 454 1581.81 454 1524.86 454C1468.54 454 1412.24 454 1355.28 454C1299.1 454 1242.67 454 1185.71 454C1129.66 454 1073.09 454 1016.14 454C960.219 454 903.522 454 847.861 454C790.776 454 733.95 454 678.289 454C621.333 454 564.378 454 508.717 454C451.891 454 394.806 454 339.144 454C282.448 454 226.528 454 169.572 454C113.005 454 56.9556 454 28.4778 454H0V526.492Z" fill="#E8BA44"/>
</svg>
