<svg width="1864" height="1114" viewBox="0 0 1864 1114" fill="none" xmlns="http://www.w3.org/2000/svg">
<rect y="552" width="1864" height="179" fill="#7277FF"/>
<path d="M0 787.186L34.5617 833.3C68.9939 878.723 138.506 971.987 207.111 971.469C276.105 971.987 345.617 878.723 414.222 870.087C483.216 861.452 552.728 933.991 621.333 989.777C690.327 1044.53 759.839 1082.52 828.444 1100.31C897.438 1118.79 966.95 1118.79 1035.56 1091.16C1104.55 1063.52 1174.06 1008.26 1242.67 943.835C1311.66 878.723 1381.17 806.184 1449.78 768.706C1518.77 731.918 1588.28 731.918 1656.89 759.552C1725.88 787.186 1795.39 842.454 1829.05 870.087L1864 897.721V676.651H1829.44C1795.01 676.651 1725.49 676.651 1656.89 676.651C1587.9 676.651 1518.38 676.651 1449.78 676.651C1380.78 676.651 1311.27 676.651 1242.67 676.651C1173.67 676.651 1104.16 676.651 1035.56 676.651C966.562 676.651 897.05 676.651 828.444 676.651C759.451 676.651 689.939 676.651 621.333 676.651C552.339 676.651 482.828 676.651 414.222 676.651C345.228 676.651 275.717 676.651 207.111 676.651C138.117 676.651 68.6056 676.651 34.95 676.651H0V787.186Z" fill="#7277FF"/>
<path d="M0 5.72205e-05L62.1333 64.2761C124.267 129.241 248.533 256.76 372.8 294.153C497.067 330.858 621.333 275.715 745.6 211.439C869.867 146.474 994.133 74.0984 1118.4 91.8476C1242.67 110.286 1366.93 220.572 1491.2 239.01C1615.47 256.76 1739.73 184.384 1801.87 146.991L1864 110.286V496.287H1801.87C1739.73 496.287 1615.47 496.287 1491.2 496.287C1366.93 496.287 1242.67 496.287 1118.4 496.287C994.133 496.287 869.867 496.287 745.6 496.287C621.333 496.287 497.067 496.287 372.8 496.287C248.533 496.287 124.267 496.287 62.1333 496.287H0V5.72205e-05Z" fill="#F2D17C"/>
<path d="M0 443.358L34.5617 412.17C68.9939 381.45 138.506 318.374 207.111 318.724C276.105 318.374 345.617 381.45 414.222 387.29C483.216 393.13 552.728 344.071 621.333 306.343C690.327 269.315 759.839 243.617 828.444 231.586C897.438 219.087 966.95 219.087 1035.56 237.777C1104.55 256.466 1174.06 293.844 1242.67 337.413C1311.66 381.45 1381.17 430.509 1449.78 455.856C1518.77 480.736 1588.28 480.736 1656.89 462.047C1725.88 443.358 1795.39 405.979 1829.05 387.29L1864 368.601V518.115H1829.44C1795.01 518.115 1725.49 518.115 1656.89 518.115C1587.9 518.115 1518.38 518.115 1449.78 518.115C1380.78 518.115 1311.27 518.115 1242.67 518.115C1173.67 518.115 1104.16 518.115 1035.56 518.115C966.562 518.115 897.05 518.115 828.444 518.115C759.451 518.115 689.939 518.115 621.333 518.115C552.339 518.115 482.828 518.115 414.222 518.115C345.228 518.115 275.717 518.115 207.111 518.115C138.117 518.115 68.6056 518.115 34.95 518.115H0V443.358Z" fill="#E8BA44"/>
<path d="M0 626.21L28.2189 656.275C56.4378 685.888 112.617 746.692 169.572 740.274C225.881 734.306 282.189 662.242 339.144 626.21C395.453 590.178 451.761 590.178 508.717 602.227C564.896 613.824 621.333 638.596 678.289 680.258C734.338 721.92 790.906 782.724 847.861 794.322C903.781 806.37 960.478 770.338 1016.14 770.338C1073.22 770.338 1130.05 806.37 1185.71 812.338C1242.67 818.756 1299.62 793.984 1355.28 764.37C1412.11 734.306 1469.19 698.274 1524.86 668.21C1581.55 638.596 1637.47 613.824 1694.43 620.243C1751 626.21 1807.04 662.242 1835.52 680.258L1864 698.274V518.115H1835.78C1807.56 518.115 1751.38 518.115 1694.43 518.115C1638.12 518.115 1581.81 518.115 1524.86 518.115C1468.55 518.115 1412.24 518.115 1355.28 518.115C1299.1 518.115 1242.67 518.115 1185.71 518.115C1129.66 518.115 1073.09 518.115 1016.14 518.115C960.219 518.115 903.522 518.115 847.861 518.115C790.776 518.115 733.95 518.115 678.289 518.115C621.333 518.115 564.378 518.115 508.717 518.115C451.891 518.115 394.806 518.115 339.144 518.115C282.448 518.115 226.528 518.115 169.572 518.115C113.005 518.115 56.9556 518.115 28.4778 518.115H0V626.21Z" fill="#E8BA44"/>
</svg>
