<svg width="1648" height="1020" viewBox="0 0 1648 1020" fill="none" xmlns="http://www.w3.org/2000/svg">
<path d="M0 720.883L30.5567 763.087C60.9989 804.658 122.456 890.015 183.111 889.54C244.11 890.015 305.567 804.658 366.222 796.755C427.221 788.852 488.678 855.24 549.333 906.296C610.332 956.403 671.789 991.178 732.444 1007.46C793.443 1024.37 854.9 1024.37 915.556 999.081C976.554 973.79 1038.01 923.209 1098.67 864.25C1159.67 804.658 1221.12 738.27 1281.78 703.969C1342.78 670.301 1404.23 670.301 1464.89 695.592C1525.89 720.883 1587.34 771.464 1617.1 796.755L1648 822.046V619.72H1617.44C1587 619.72 1525.54 619.72 1464.89 619.72C1403.89 619.72 1342.43 619.72 1281.78 619.72C1220.78 619.72 1159.32 619.72 1098.67 619.72C1037.67 619.72 976.211 619.72 915.556 619.72C854.557 619.72 793.1 619.72 732.444 619.72C671.446 619.72 609.989 619.72 549.333 619.72C488.334 619.72 426.878 619.72 366.222 619.72C305.223 619.72 243.767 619.72 183.111 619.72C122.112 619.72 60.6556 619.72 30.9 619.72H0V720.883Z" fill="#7277FF"/>
<path d="M0 0.442627L54.9333 59.2687C109.867 118.726 219.733 235.431 329.6 269.655C439.467 303.247 549.333 252.78 659.2 193.953C769.067 134.497 878.933 68.2582 988.8 84.5023C1098.67 101.377 1208.53 202.312 1318.4 219.187C1428.27 235.431 1538.13 169.193 1593.07 134.97L1648 101.377V454.649H1593.07C1538.13 454.649 1428.27 454.649 1318.4 454.649C1208.53 454.649 1098.67 454.649 988.8 454.649C878.933 454.649 769.067 454.649 659.2 454.649C549.333 454.649 439.467 454.649 329.6 454.649C219.733 454.649 109.867 454.649 54.9333 454.649H0V0.442627Z" fill="#F2D17C"/>
<path d="M0 406.208L30.5567 377.665C60.9989 349.549 122.456 291.821 183.111 292.142C244.11 291.821 305.567 349.549 366.222 354.894C427.221 360.239 488.678 315.34 549.333 280.81C610.332 246.922 671.789 223.403 732.444 212.392C793.443 200.953 854.9 200.953 915.556 218.058C976.554 235.162 1038.01 269.372 1098.67 309.246C1159.67 349.549 1221.12 394.448 1281.78 417.646C1342.78 440.417 1404.23 440.417 1464.89 423.312C1525.89 406.208 1587.34 371.999 1617.1 354.894L1648 337.79V474.626H1617.44C1587 474.626 1525.54 474.626 1464.89 474.626C1403.89 474.626 1342.43 474.626 1281.78 474.626C1220.78 474.626 1159.32 474.626 1098.67 474.626C1037.67 474.626 976.211 474.626 915.556 474.626C854.557 474.626 793.1 474.626 732.444 474.626C671.446 474.626 609.989 474.626 549.333 474.626C488.334 474.626 426.878 474.626 366.222 474.626C305.223 474.626 243.767 474.626 183.111 474.626C122.112 474.626 60.6556 474.626 30.9 474.626H0V406.208Z" fill="#E8BA44"/>
<path d="M0 573.556L24.9489 601.071C49.8978 628.174 99.5667 683.822 149.922 677.948C199.706 672.487 249.489 606.533 299.844 573.556C349.628 540.579 399.411 540.579 449.767 551.606C499.436 562.221 549.333 584.892 599.689 623.021C649.243 661.151 699.256 716.799 749.611 727.414C799.051 738.44 849.178 705.463 898.389 705.463C948.859 705.463 999.1 738.44 1048.31 743.902C1098.67 749.776 1149.02 727.104 1198.23 700.002C1248.47 672.487 1298.94 639.51 1348.16 611.995C1398.28 584.892 1447.72 562.221 1498.08 568.095C1548.09 573.556 1597.64 606.533 1622.82 623.021L1648 639.51V474.626H1623.05C1598.1 474.626 1548.43 474.626 1498.08 474.626C1448.29 474.626 1398.51 474.626 1348.16 474.626C1298.37 474.626 1248.59 474.626 1198.23 474.626C1148.56 474.626 1098.67 474.626 1048.31 474.626C998.757 474.626 948.744 474.626 898.389 474.626C848.949 474.626 798.822 474.626 749.611 474.626C699.141 474.626 648.9 474.626 599.689 474.626C549.333 474.626 498.978 474.626 449.767 474.626C399.526 474.626 349.056 474.626 299.844 474.626C249.718 474.626 200.278 474.626 149.922 474.626C99.91 474.626 50.3556 474.626 25.1778 474.626H0V573.556Z" fill="#E8BA44"/>
</svg>
