<svg width="1646" height="1020" viewBox="0 0 1646 1020" fill="none" xmlns="http://www.w3.org/2000/svg">
<path d="M0 0L54.8666 58.8261C109.734 118.283 219.466 234.988 329.2 269.212C438.934 302.804 548.666 252.337 658.4 193.51C768.134 134.054 877.866 67.8156 987.6 84.0597C1097.34 100.934 1207.06 201.869 1316.8 218.744C1426.54 234.988 1536.26 168.75 1591.14 134.527L1646 100.934V454.206H1591.14C1536.26 454.206 1426.54 454.206 1316.8 454.206C1207.06 454.206 1097.34 454.206 987.6 454.206C877.866 454.206 768.134 454.206 658.4 454.206C548.666 454.206 438.934 454.206 329.2 454.206C219.466 454.206 109.734 454.206 54.8666 454.206H0V0Z" fill="#F2D17C"/>
<path d="M0 406.208L30.5196 377.665C60.9249 349.549 122.307 291.821 182.889 292.142C243.814 291.821 305.196 349.549 365.778 354.894C426.703 360.239 488.085 315.34 548.666 280.81C609.591 246.922 670.974 223.403 731.555 212.392C792.48 200.953 853.862 200.953 914.445 218.058C975.369 235.162 1036.75 269.372 1097.34 309.246C1158.26 349.549 1219.64 394.448 1280.22 417.646C1341.15 440.417 1402.53 440.417 1463.11 423.312C1524.04 406.208 1585.41 371.999 1615.14 354.894L1646 337.79V474.626H1615.48C1585.07 474.626 1523.69 474.626 1463.11 474.626C1402.19 474.626 1340.8 474.626 1280.22 474.626C1219.3 474.626 1157.91 474.626 1097.34 474.626C1036.41 474.626 975.026 474.626 914.445 474.626C853.52 474.626 792.137 474.626 731.555 474.626C670.631 474.626 609.249 474.626 548.666 474.626C487.741 474.626 426.36 474.626 365.778 474.626C304.853 474.626 243.471 474.626 182.889 474.626C121.964 474.626 60.582 474.626 30.8625 474.626H0V406.208Z" fill="#E8BA44"/>
<path d="M0 547.492L24.9186 567.654C49.8372 587.514 99.4459 628.291 149.74 623.987C199.464 619.985 249.186 571.656 299.48 547.492C349.204 523.328 398.926 523.328 449.221 531.408C498.83 539.186 548.666 555.799 598.961 583.738C648.455 611.678 698.407 652.455 748.701 660.233C798.081 668.313 848.147 644.148 897.299 644.148C947.707 644.148 997.888 668.313 1047.04 672.315C1097.34 676.619 1147.63 660.006 1196.78 640.147C1246.95 619.985 1297.36 595.821 1346.52 575.659C1396.58 555.799 1445.96 539.186 1496.26 543.49C1546.21 547.492 1595.7 571.656 1620.85 583.738L1646 595.821V475H1621.08C1596.16 475 1546.55 475 1496.26 475C1446.53 475 1396.81 475 1346.52 475C1296.79 475 1247.07 475 1196.78 475C1147.17 475 1097.34 475 1047.04 475C997.545 475 947.593 475 897.299 475C847.919 475 797.853 475 748.701 475C698.293 475 648.112 475 598.961 475C548.666 475 498.372 475 449.221 475C399.041 475 348.632 475 299.48 475C249.415 475 200.035 475 149.74 475C99.7887 475 50.2945 475 25.1472 475H0V547.492Z" fill="#E8BA44"/>
</svg>
