<svg width="561" height="432" viewBox="0 0 561 432" fill="none" xmlns="http://www.w3.org/2000/svg">
<g id="Svg do jake + alguma coisa">
<g id="jake">
<path id="Vector" d="M511.855 11.1903C511.855 14.2802 509.41 16.7854 506.395 16.7854C503.379 16.7854 500.934 14.2802 500.934 11.1903C500.934 8.10044 503.379 5.59521 506.395 5.59521C509.41 5.59521 511.855 8.10044 511.855 11.1903Z" fill="#D9E5FF"/>
<path id="Vector_2" d="M561 212.613C561 330.036 468.099 425.227 353.5 425.227C238.901 425.227 146 330.036 146 212.613C146 95.1903 238.901 0 353.5 0C468.099 0 561 95.1903 561 212.613Z" fill="#D9E5FF"/>
<path id="Vector_3" d="M561 22.3804C561 34.7412 551.222 44.7607 539.158 44.7607C527.094 44.7607 517.316 34.7412 517.316 22.3804C517.316 10.0195 527.094 0 539.158 0C551.222 0 561 10.0195 561 22.3804Z" fill="#D9E5FF"/>
<path id="Vector_4" d="M167.842 78.3313C167.842 84.511 162.952 89.5215 156.921 89.5215C150.89 89.5215 146 84.511 146 78.3313C146 72.1516 150.89 67.1411 156.921 67.1411C162.952 67.1411 167.842 72.1516 167.842 78.3313Z" fill="#FFE0A8"/>
<path id="Vector_5" d="M517.316 363.681C517.316 369.861 512.426 374.871 506.395 374.871C500.364 374.871 495.474 369.861 495.474 363.681C495.474 357.501 500.364 352.491 506.395 352.491C512.426 352.491 517.316 357.501 517.316 363.681Z" fill="#FBCD59"/>
<path id="Vector_6" d="M195.145 369.276C195.145 381.637 185.366 391.656 173.303 391.656C161.239 391.656 151.46 381.637 151.46 369.276C151.46 356.915 161.239 346.896 173.303 346.896C185.366 346.896 195.145 356.915 195.145 369.276Z" fill="#FBCD59"/>
<path id="Vector_7" d="M222.447 397.251C222.447 403.431 217.557 408.442 211.526 408.442C205.495 408.442 200.605 403.431 200.605 397.251C200.605 391.072 205.495 386.061 211.526 386.061C217.557 386.061 222.447 391.072 222.447 397.251Z" fill="#FFE0A8"/>
<path id="Vector_8" d="M347.854 394.549C347.854 402.222 341.783 408.442 334.295 408.442C326.807 408.442 320.737 402.222 320.737 394.549C320.737 386.877 326.807 380.656 334.295 380.656C341.783 380.656 347.854 386.877 347.854 394.549Z" fill="#DD9814"/>
<path id="Vector_9" d="M173.303 201.423C173.303 204.513 170.858 207.018 167.842 207.018C164.827 207.018 162.382 204.513 162.382 201.423C162.382 198.333 164.827 195.828 167.842 195.828C170.858 195.828 173.303 198.333 173.303 201.423Z" fill="#DD9814"/>
<path id="Vector_10" d="M555.539 106.307C555.539 109.397 553.094 111.902 550.079 111.902C547.063 111.902 544.618 109.397 544.618 106.307C544.618 103.217 547.063 100.712 550.079 100.712C553.094 100.712 555.539 103.217 555.539 106.307Z" fill="#D9E5FF"/>
<path id="Vector_11" d="M544.618 230.098C544.618 236.278 539.729 241.288 533.697 241.288C527.666 241.288 522.776 236.278 522.776 230.098C522.776 223.918 527.666 218.908 533.697 218.908C539.729 218.908 544.618 223.918 544.618 230.098Z" fill="#DD9814"/>
<path id="Vector_12" d="M355.913 348.025C305.131 348.02 258.4 311.512 239.621 257.173L238.529 254.017L235.312 254.633C234.668 254.756 234.007 254.817 233.353 254.817C227.187 254.817 220.809 249.497 220.809 240.589C220.809 143.134 273.995 103.504 284.654 96.5495C296.503 88.2798 309.461 82.6055 323.277 79.6071C330.577 78.024 338.064 77.218 345.523 77.218C350.306 77.218 355.155 77.5486 359.933 78.2029L361.844 78.5389C423.804 89.0516 454.984 127.792 470.224 158.448C472.589 163.192 470.727 171.216 466.543 174.343L464.409 175.938L465.108 178.544C465.884 181.437 466.61 184.363 467.226 187.345C482.38 260.692 442.474 331.699 378.258 345.631C370.908 347.221 363.395 348.025 355.913 348.025C355.92 348.025 355.92 348.025 355.913 348.025Z" fill="#D9E5FF"/>
<path id="Vector_13" d="M345.528 81.1287C350.082 81.1287 354.696 81.4415 359.255 82.0576C359.784 82.1587 360.446 82.2707 361.227 82.4046C421.609 92.6495 451.98 130.377 466.822 160.226C468.33 163.253 466.954 169.19 464.289 171.182L460.024 174.371L461.421 179.585C462.296 182.853 462.95 185.578 463.486 188.162C478.207 259.389 439.623 328.314 377.471 341.799C370.384 343.337 363.127 344.12 355.92 344.12C306.752 344.12 261.463 308.659 243.23 255.88L241.046 249.563L234.619 250.794C234.21 250.872 233.783 250.912 233.358 250.912C229.737 250.912 224.631 247.711 224.631 240.6C224.631 145.192 276.343 106.625 286.903 99.7267C298.239 91.8148 310.744 86.3372 324.068 83.4454C331.111 81.906 338.336 81.1287 345.528 81.1287ZM345.528 73.2961C337.9 73.2961 330.194 74.0952 322.485 75.7686C307.849 78.9472 294.445 84.9726 282.601 93.2423C270.096 101.405 216.987 141.858 216.987 240.589C216.987 251.773 225.167 258.733 233.358 258.733C234.247 258.733 235.143 258.65 236.023 258.482C255.364 314.46 303.798 351.943 355.92 351.943C363.58 351.943 371.317 351.131 379.055 349.453C445.438 335.046 486.59 262.102 470.967 186.528C470.333 183.469 469.591 180.469 468.794 177.499C474.455 173.269 476.831 163.096 473.632 156.662C437.456 83.9263 370.564 76.233 360.44 74.3138C355.521 73.6431 350.54 73.2961 345.528 73.2961Z" fill="#D9E5FF"/>
<path id="Vector_14" d="M342.579 184.611C342.579 206.241 325.465 223.776 304.355 223.776C283.245 223.776 266.132 206.241 266.132 184.611C266.132 162.979 283.245 145.445 304.355 145.445C325.465 145.445 342.579 162.979 342.579 184.611Z" fill="#D9E5FF"/>
<path id="Vector_15" d="M298.895 198.598C298.895 203.233 295.227 206.991 290.704 206.991C286.181 206.991 282.513 203.233 282.513 198.598C282.513 193.962 286.181 190.206 290.704 190.206C295.227 190.206 298.895 193.962 298.895 198.598Z" fill="#DD9814"/>
<path id="Vector_16" d="M326.197 173.421C326.197 182.69 318.862 190.206 309.816 190.206C300.769 190.206 293.434 182.69 293.434 173.421C293.434 164.15 300.769 156.635 309.816 156.635C318.862 156.635 326.197 164.15 326.197 173.421Z" fill="#DD9814"/>
<path id="Vector_17" d="M457.25 137.052C457.25 157.138 441.359 173.42 421.757 173.42C402.154 173.42 386.263 157.138 386.263 137.052C386.263 116.966 402.154 100.684 421.757 100.684C441.359 100.684 457.25 116.966 457.25 137.052Z" fill="#D9E5FF"/>
<path id="Vector_18" d="M419.026 153.838C419.026 158.473 415.359 162.23 410.836 162.23C406.312 162.23 402.645 158.473 402.645 153.838C402.645 149.202 406.312 145.445 410.836 145.445C415.359 145.445 419.026 149.202 419.026 153.838Z" fill="#CEE5FF"/>
<path id="Vector_19" d="M446.329 128.66C446.329 137.929 438.994 145.445 429.947 145.445C420.901 145.445 413.566 137.929 413.566 128.66C413.566 119.389 420.901 111.875 429.947 111.875C438.994 111.875 446.329 119.389 446.329 128.66Z" fill="#DD9814"/>
<path id="Vector_20" d="M337.118 268.564C337.118 268.564 305.038 204.221 364.421 167.853C415.613 139.178 451.325 184.806 457.25 201.423C470.219 237.791 440.868 251.08 422.439 219.607C408.105 195.129 391.27 189.394 380.803 195.828C370.564 202.123 370.564 230.098 374.659 248.282C381.485 276.257 354.865 294.441 337.118 268.564Z" fill="#D9E5FF"/>
<path id="Vector_21" d="M356.525 283.799C349.678 283.799 341.766 280.202 334.885 270.171C334.808 270.064 334.748 269.952 334.688 269.835C334.355 269.168 302.149 202.726 363.017 165.447C381.972 154.833 400.516 152.947 418.273 159.796C439.902 168.138 455.585 188.594 459.811 200.455C467.063 220.798 461.509 234.211 452.777 238.48C444.101 242.727 430.608 239 420.097 221.04C406.38 197.619 391.172 192.695 382.206 198.217C374.151 203.169 372.989 228.397 377.319 247.644C381.589 265.151 373.758 277.734 364.666 281.992C362.264 283.123 359.495 283.799 356.525 283.799ZM339.466 267.12C346.194 276.834 354.756 280.488 362.395 276.912C369.499 273.583 375.538 263.417 372.01 248.96C367.818 230.333 367.347 200.836 379.404 193.428C390.713 186.472 409.132 191.436 424.787 218.163C433.485 233.019 444.188 236.494 450.435 233.432C456.927 230.255 460.772 219.423 454.689 202.379C451.648 193.847 438.274 173.493 416.351 165.033C400.16 158.783 383.129 160.557 365.731 170.303C310.214 204.311 337.353 262.785 339.466 267.12Z" fill="#D9E5FF"/>
<path id="Vector_22" d="M411.197 183.137C415.167 190.184 409.277 201.284 398.041 207.931C386.807 214.578 374.48 214.254 370.51 207.207C366.539 200.161 372.429 189.061 383.665 182.414C394.901 175.767 407.227 176.091 411.197 183.137Z" fill="#D9E5FF"/>
<path id="Vector_23" d="M405.375 222.589C405.375 222.589 404.031 234.479 391.724 230.282C379.416 226.086 381.938 239.374 390.359 240.773C398.779 242.172 410.552 241.523 413.587 228.184C416.296 216.295 406.024 218.393 405.375 222.589Z" fill="#D9E5FF"/>
<path id="Vector_24" d="M394.378 242.306C392.881 242.306 391.445 242.188 390.14 241.971C385.93 241.272 383.145 238.06 382.249 235.184C381.545 232.941 381.928 230.786 383.276 229.426C384.515 228.168 387.071 227.037 392.161 228.772C395.6 229.946 398.385 229.863 400.422 228.537C403.507 226.523 404.021 222.287 404.026 222.242L404.031 222.186C404.31 220.402 405.747 218.841 407.788 218.107C409.913 217.341 412.13 217.717 413.587 219.076C414.926 220.328 416.241 222.959 414.915 228.341C412.321 238.877 402.387 242.306 394.378 242.306ZM387.503 230.68C386.471 230.68 385.674 230.926 385.193 231.413C384.33 232.286 384.663 233.747 384.849 234.328C385.493 236.392 387.514 238.698 390.583 239.206C397.877 240.415 409.64 238.334 412.271 227.658C413.053 224.503 412.862 222.186 411.742 221.14C410.901 220.346 409.601 220.424 408.689 220.749C407.641 221.129 406.855 221.873 406.729 222.606C406.664 223.149 405.922 228.263 401.886 230.893C399.123 232.7 395.551 232.874 391.298 231.424C389.829 230.926 388.545 230.68 387.503 230.68Z" fill="#D9E5FF"/>
<path id="Vector_25" d="M395.879 230.971C396.103 235.766 402.514 236.985 402.89 230.552C402.945 229.639 402.962 228.828 402.967 228.05C401.553 229.78 399.346 231.179 395.879 230.971Z" fill="#DD9814"/>
<path id="Vector_26" d="M391.724 230.098C388.96 229.158 386.951 229.097 385.586 229.589C385.586 229.617 385.586 229.65 385.581 229.679C385.411 234.647 391.69 236.113 392.521 230.322C392.253 230.237 392.008 230.194 391.724 230.098Z" fill="#DD9814"/>
<path id="Vector_27" d="M411.119 219.289C408.738 218.583 405.713 220.189 405.375 222.405C405.375 222.405 405.2 223.849 404.474 225.544C405.943 228.766 410.754 228.929 411.081 223.379C411.174 221.796 411.169 220.48 411.119 219.289Z" fill="#DD9814"/>
<path id="Vector_28" d="M260.671 159.426C260.142 159.426 259.616 159.27 259.153 158.951C257.902 158.089 257.569 156.366 258.399 155.085C258.869 154.364 270.326 137.315 309.062 125.973C323.942 120.887 329.173 110.716 329.217 110.615C329.905 109.249 331.538 108.69 332.887 109.39C334.224 110.084 334.771 111.757 334.099 113.133C333.853 113.631 327.934 125.425 310.678 131.322C274.012 142.059 263.041 158.045 262.937 158.206C262.401 158.996 261.544 159.426 260.671 159.426Z" fill="#D9E5FF"/>
<path id="Vector_29" d="M419.709 101.389C419.365 101.389 419.01 101.321 418.672 101.176C408.543 96.9019 395.678 98.9823 387.164 100.359L385.313 100.656C376.085 102.116 365.06 100.029 364.601 99.9398C363.121 99.6543 362.144 98.1941 362.423 96.6779C362.696 95.1616 364.098 94.148 365.606 94.4445C365.716 94.4622 376.189 96.4374 384.483 95.1275L386.318 94.8365C395.431 93.3653 409.22 91.1388 420.751 96.0058C422.145 96.5932 422.811 98.2269 422.231 99.6598C421.801 100.733 420.779 101.384 419.709 101.389Z" fill="#D9E5FF"/>
<path id="Vector_30" d="M235.077 256.68C234.767 256.68 234.575 256.669 234.531 256.664C233.03 256.552 231.905 255.209 232.009 253.67C232.123 252.131 233.571 250.968 234.914 251.085C235.159 251.107 239.659 251.298 243.612 247.382C247.861 243.173 249.985 235.525 249.75 225.269C249.717 223.726 250.907 222.444 252.415 222.41C254.08 222.378 255.172 223.596 255.211 225.141C255.484 237.26 252.819 246.133 247.288 251.522C242.4 256.277 236.825 256.68 235.077 256.68Z" fill="#D9E5FF"/>
<path id="Vector_31" d="M463.393 179.742C462.219 179.742 461.132 178.959 460.778 177.745C458.829 171.086 456.196 165.659 456.169 165.603C455.497 164.222 456.044 162.543 457.391 161.849C458.746 161.161 460.379 161.721 461.056 163.102C461.171 163.338 463.912 168.995 466.003 176.139C466.441 177.617 465.621 179.177 464.174 179.625C463.917 179.703 463.656 179.742 463.393 179.742Z" fill="#D9E5FF"/>
<path id="Vector_32" d="M363.056 330.788C362.329 330.788 361.729 330.206 361.691 329.456C361.652 328.684 362.237 328.028 362.985 327.99C386.307 326.821 418.529 315.703 439.629 269.37C439.946 268.671 440.764 268.369 441.442 268.693C442.124 269.018 442.424 269.851 442.103 270.55C425.191 307.685 397.146 329.075 363.121 330.782C363.1 330.788 363.077 330.788 363.056 330.788Z" fill="#D9E5FF"/>
<path id="Vector_33" d="M348.039 330.267C347.99 330.267 347.935 330.267 347.886 330.255C330.402 328.202 312.481 321.052 297.425 310.13C296.814 309.683 296.662 308.81 297.098 308.178C297.535 307.546 298.387 307.399 299.004 307.842C313.687 318.501 331.16 325.466 348.198 327.47C348.951 327.559 349.48 328.253 349.399 329.019C349.311 329.741 348.727 330.267 348.039 330.267Z" fill="#D9E5FF"/>
<path id="Vector_34" d="M287.291 301.318C286.958 301.318 286.625 301.195 286.363 300.944C278.838 293.793 272.783 285.948 268.343 277.622C267.989 276.946 268.229 276.095 268.889 275.726C269.544 275.363 270.375 275.603 270.746 276.285C275.038 284.343 280.913 291.951 288.219 298.895C288.776 299.421 288.804 300.306 288.296 300.87C288.023 301.166 287.656 301.318 287.291 301.318Z" fill="#D9E5FF"/>
</g>
<g id="Group">
<g id="Group_2">
<path id="Vector_35" d="M63.5036 385.13L113.883 363.321C116.614 361.942 118.836 357.489 120.401 354.313C121.811 351.445 119.704 348.068 116.531 348.068H80.9012C80.9012 348.068 68.0202 346.796 58.0859 342.488C52.2646 339.965 50.2633 336.634 53.9009 331.404C64.5429 316.113 86.54 280.106 87.2532 242.922C87.2532 242.922 88.4749 185.68 144.416 185.217C177.049 185.49 192.462 204.878 199.644 220.989C203.646 229.98 205.365 239.78 206.007 249.613C208.329 285.056 226.207 317.475 234.538 331.326C237.363 336.025 235.998 342.281 231.326 345.105C223.664 349.732 214.283 348.068 214.283 348.068H178.415C174.91 348.068 173.362 353.013 176.115 355.206C178.36 356.992 180.499 358.605 181.654 359.241L223.559 384.84C229.607 388.172 234.433 393.116 237.717 398.954C212.569 419.474 180.576 431.78 145.721 431.78C109.377 431.78 76.1468 418.391 50.5453 396.269C53.8899 391.665 58.2517 387.781 63.5036 385.13Z" fill="white"/>
<g id="Group_3">
<path id="Vector_36" d="M146.5 136C65.5878 136 0 202.216 0 283.89C0 328.659 19.736 368.751 50.8714 395.873C54.1774 391.448 58.412 387.703 63.5091 385.13L113.889 363.321C116.62 361.942 118.842 357.489 120.406 354.313C121.816 351.445 119.71 348.068 116.537 348.068H80.9067C80.9067 348.068 68.0258 346.796 58.0914 342.488C52.2701 339.965 50.2688 336.633 53.9065 331.404C64.5485 316.113 86.5456 280.106 87.2587 242.922C87.2587 242.922 88.4805 185.68 144.421 185.217C177.055 185.49 192.468 204.878 199.649 220.989C203.652 229.98 205.371 239.78 206.012 249.613C208.334 285.056 226.213 317.475 234.544 331.326C237.369 336.025 236.003 342.281 231.332 345.105C223.664 349.732 214.283 348.068 214.283 348.068H178.415C174.91 348.068 173.362 353.013 176.115 355.206C178.36 356.992 180.499 358.605 181.654 359.241L223.559 384.84C229.563 388.144 234.35 393.038 237.629 398.82C237.772 398.959 237.933 399.088 238.071 399.238C271.534 372.138 293 330.567 293 283.89C293 202.216 227.412 136 146.5 136Z" fill="#29136A"/>
</g>
</g>
</g>
</g>
</svg>
