<svg width="1648" height="238" viewBox="0 0 1648 238" fill="none" xmlns="http://www.w3.org/2000/svg">
<path d="M0 177.738L30.5567 152.597C60.9989 127.833 122.456 76.9867 183.111 77.2692C244.11 76.9867 305.567 127.833 366.222 132.541C427.221 137.249 488.678 97.7019 549.333 67.2883C610.332 37.4396 671.789 16.7245 732.444 7.026C793.443 -3.0491 854.9 -3.04907 915.556 12.0165C976.554 27.0821 1038.01 57.2132 1098.67 92.3348C1159.67 127.833 1221.12 167.38 1281.78 187.813C1342.78 207.869 1404.23 207.869 1464.89 192.803C1525.89 177.738 1587.34 147.607 1617.1 132.541L1648 117.475V238H1617.44C1587 238 1525.54 238 1464.89 238C1403.89 238 1342.43 238 1281.78 238C1220.78 238 1159.32 238 1098.67 238C1037.67 238 976.211 238 915.556 238C854.557 238 793.1 238 732.444 238C671.446 238 609.989 238 549.333 238C488.334 238 426.878 238 366.222 238C305.223 238 243.767 238 183.111 238C122.112 238 60.6556 238 30.9 238H0V177.738Z" fill="#262DDA"/>
</svg>
