<svg width="1648" height="721" viewBox="0 0 1648 721" fill="none" xmlns="http://www.w3.org/2000/svg">
<path d="M0 639.445L54.9333 593.922C109.867 547.544 219.733 457.781 329.6 434.272C439.467 410.762 549.333 457.781 659.2 536.858C769.067 615.935 878.933 731.345 988.8 719.163C1098.67 707.836 1208.53 571.054 1318.4 491.335C1428.27 410.762 1538.13 389.39 1593.07 377.208L1648 365.88V160.707H1593.07C1538.13 160.707 1428.27 160.707 1318.4 160.707C1208.53 160.707 1098.67 160.707 988.8 160.707C878.933 160.707 769.067 160.707 659.2 160.707C549.333 160.707 439.467 160.707 329.6 160.707C219.733 160.707 109.867 160.707 54.9333 160.707H0V639.445Z" fill="#F2D17C"/>
<path d="M0 220.828L30.5567 270.473C60.9989 319.375 122.456 419.781 183.111 419.223C244.11 419.781 305.567 319.375 366.222 310.078C427.221 300.781 488.678 378.875 549.333 438.932C610.332 497.874 671.789 538.78 732.444 557.932C793.443 577.827 854.9 577.827 915.556 548.077C976.554 518.327 1038.01 458.828 1098.67 389.473C1159.67 319.375 1221.12 241.281 1281.78 200.933C1342.78 161.328 1404.23 161.328 1464.89 191.078C1525.89 220.828 1587.34 280.328 1617.1 310.078L1648 339.828V101.829H1617.44C1587 101.829 1525.54 101.829 1464.89 101.829C1403.89 101.829 1342.43 101.829 1281.78 101.829C1220.78 101.829 1159.32 101.829 1098.67 101.829C1037.67 101.829 976.211 101.829 915.556 101.829C854.557 101.829 793.1 101.829 732.444 101.829C671.446 101.829 609.989 101.829 549.333 101.829C488.334 101.829 426.878 101.829 366.222 101.829C305.223 101.829 243.767 101.829 183.111 101.829C122.112 101.829 60.6556 101.829 30.9 101.829H0V220.828Z" fill="#E8BA44"/>
<path d="M0 165.987L30.5567 192.753C60.9989 219.119 122.456 273.252 183.111 272.952C244.11 273.252 305.567 219.119 366.222 214.106C427.221 209.094 488.678 251.198 549.333 283.578C610.332 315.357 671.789 337.411 732.444 347.737C793.443 358.463 854.9 358.463 915.556 342.424C976.554 326.384 1038.01 294.305 1098.67 256.912C1159.67 219.119 1221.12 177.015 1281.78 155.261C1342.78 133.908 1404.23 133.908 1464.89 149.948C1525.89 165.987 1587.34 198.067 1617.1 214.106L1648 230.146V101.829H1617.44C1587 101.829 1525.54 101.829 1464.89 101.829C1403.89 101.829 1342.43 101.829 1281.78 101.829C1220.78 101.829 1159.32 101.829 1098.67 101.829C1037.67 101.829 976.211 101.829 915.556 101.829C854.557 101.829 793.1 101.829 732.444 101.829C671.446 101.829 609.989 101.829 549.333 101.829C488.334 101.829 426.878 101.829 366.222 101.829C305.223 101.829 243.767 101.829 183.111 101.829C122.112 101.829 60.6556 101.829 30.9 101.829H0V165.987Z" fill="#7277FF"/>
<path d="M0 76.2716L30.5567 65.6096C60.9989 55.1073 122.456 33.5436 183.111 33.6634C244.11 33.5436 305.567 55.1073 366.222 57.1039C427.221 59.1006 488.678 42.3288 549.333 29.4305C610.332 16.7718 671.789 7.98662 732.444 3.87354C793.443 -0.399261 854.9 -0.399261 915.556 5.98998C976.554 12.3792 1038.01 25.1577 1098.67 40.0526C1159.67 55.1073 1221.12 71.879 1281.78 80.5445C1342.78 89.0501 1404.23 89.0501 1464.89 82.6609C1525.89 76.2716 1587.34 63.4932 1617.1 57.1039L1648 50.7147V101.829H1617.44C1587 101.829 1525.54 101.829 1464.89 101.829C1403.89 101.829 1342.43 101.829 1281.78 101.829C1220.78 101.829 1159.32 101.829 1098.67 101.829C1037.67 101.829 976.211 101.829 915.556 101.829C854.557 101.829 793.1 101.829 732.444 101.829C671.446 101.829 609.989 101.829 549.333 101.829C488.334 101.829 426.878 101.829 366.222 101.829C305.223 101.829 243.767 101.829 183.111 101.829C122.112 101.829 60.6556 101.829 30.9 101.829H0V76.2716Z" fill="#7277FF"/>
</svg>
